<svg width="24" height="23" viewBox="0 0 24 23" fill="none" xmlns="http://www.w3.org/2000/svg">
<path d="M13.1584 0.720526L15.8653 6.20538C16.0535 6.58686 16.4175 6.85119 16.8385 6.91226L22.8916 7.79186C23.9519 7.94606 24.375 9.24868 23.608 9.99612L19.228 14.2655C18.9236 14.5623 18.7845 14.9904 18.8566 15.4094L19.8903 21.4379C20.0716 22.4937 18.9632 23.2987 18.015 22.8006L12.6012 19.9546C12.2248 19.7568 11.7747 19.7568 11.3982 19.9546L5.98446 22.8006C5.03628 23.2992 3.92789 22.4937 4.10912 21.4379L5.14291 15.4094C5.215 14.9904 5.07583 14.5623 4.77145 14.2655L0.391471 9.99612C-0.375487 9.24819 0.0475414 7.94556 1.10787 7.79186L7.16093 6.91226C7.58196 6.85119 7.94592 6.58686 8.13415 6.20538L10.841 0.720526C11.3146 -0.240175 12.6843 -0.240175 13.1584 0.720526Z" fill="#ED8A19"/>
</svg>
